<svg height="512" width="512" xmlns="http://www.w3.org/2000/svg"><path d="M454.5 40.178h-397c-31.706 0-57.5 25.794-57.5 57.5v268.18c0 31.706 25.794 57.5 57.5 57.5h228.667a7.5 7.5 0 000-15H57.5c-23.435 0-42.5-19.065-42.5-42.5V97.678c0-23.435 19.065-42.5 42.5-42.5h397c23.435 0 42.5 19.065 42.5 42.5v268.18c0 23.435-19.065 42.5-42.5 42.5h-5V386.48c13.483-12.48 22.047-30.184 22.462-49.864.025-.249.038-.502.038-.758v-208.18a7.5 7.5 0 00-7.5-7.5c-17.92 0-32.5-14.58-32.5-32.5a7.5 7.5 0 00-7.5-7.5h-337a7.5 7.5 0 00-7.5 7.5c0 17.92-14.58 32.5-32.5 32.5a7.5 7.5 0 00-7.5 7.5v208.18a7.5 7.5 0 007.5 7.5c17.92 0 32.5 14.58 32.5 32.5a7.5 7.5 0 007.5 7.5h263.844a69.844 69.844 0 003.156 3.121v21.879h-40.333a7.5 7.5 0 000 15H354.5v35.952a12.42 12.42 0 005.928 10.633 12.418 12.418 0 0012.162.547L402 455.785l29.411 14.706a12.503 12.503 0 005.597 1.331c2.276 0 4.544-.63 6.564-1.878a12.42 12.42 0 005.928-10.633v-35.952h5c31.706 0 57.5-25.794 57.5-57.5V97.678c0-31.705-25.794-57.5-57.5-57.5zM402 390.123c-30.327 0-55-24.673-55-55s24.673-55 55-55c30.325 0 54.996 24.669 55 54.993l-.005.149c-.006.168-.011.335-.013.504l.001.026c-.363 30.017-24.881 54.328-54.983 54.328zM94.409 368.358C91.191 348.161 75.197 332.167 55 328.949V134.587c20.197-3.217 36.191-19.211 39.409-39.409h323.183c3.217 20.197 19.211 36.191 39.409 39.409V291.9c-12.828-16.288-32.706-26.777-55-26.777-38.598 0-70 31.402-70 70a69.564 69.564 0 008.408 33.235zM434.5 455.265l-26.91-13.455a12.554 12.554 0 00-11.18 0l-26.91 13.455v-58.172c9.719 5.118 20.773 8.031 32.5 8.031s22.781-2.913 32.5-8.031z"/><path d="M108 164.268h296a7.5 7.5 0 000-15H108a7.5 7.5 0 000 15zm0 50h79a7.5 7.5 0 000-15h-79a7.5 7.5 0 000 15zm296-15H214a7.5 7.5 0 000 15h190a7.5 7.5 0 000-15zm-89.833 50H108a7.5 7.5 0 000 15h206.167a7.5 7.5 0 000-15zm-58.167 50H108a7.5 7.5 0 000 15h148a7.5 7.5 0 000-15z"/></svg>